<?xml version="1.0" encoding="utf-8"?>
<!-- Generator: Adobe Illustrator 18.1.1, SVG Export Plug-In . SVG Version: 6.00 Build 0)  -->
<!DOCTYPE svg PUBLIC "-//W3C//DTD SVG 1.1//EN" "http://www.w3.org/Graphics/SVG/1.1/DTD/svg11.dtd">
<svg version="1.1" id="Layer_1" xmlns="http://www.w3.org/2000/svg" xmlns:xlink="http://www.w3.org/1999/xlink" x="0px" y="0px"
	 viewBox="0 0 1080 1080" enable-background="new 0 0 1080 1080" xml:space="preserve">
<path fill="#F3EEDD" d="M540,0C240.8,0,0,240.8,0,540s240.8,540,540,540s540-240.8,540-540S839.2,0,540,0z M810,605.7H605.7V810
	c0,36.5-29.2,65.7-65.7,65.7s-65.7-29.2-65.7-65.7V605.7H270c-36.5,0-65.7-29.2-65.7-65.7s29.2-65.7,65.7-65.7h204.3V270
	c0-36.5,29.2-65.7,65.7-65.7s65.7,29.2,65.7,65.7v204.3H810c36.5,0,65.7,29.2,65.7,65.7S846.5,605.7,810,605.7z"/>
</svg>
